
    <svg class="logo__image" viewBox="0 0 48 49" fill="none" xmlns="http://www.w3.org/2000/svg">
    <path d="M0 48.0019L0 0L0.879635 0V0.640075C0.879635 4.80056 1.92022 8.62791 3.99953 12.1202C6.08071 15.6145 8.88057 18.3881 12.3991 20.4412C15.9195 22.4943 19.7862 23.5218 23.9991 23.5218C28.212 23.5218 32.0112 22.4962 35.5597 20.4412C39.1063 18.3881 41.9062 15.6145 43.9593 12.1202C46.0124 8.62791 47.0399 4.80056 47.0399 0.640075V0L48 0V48.0019H47.0399V47.3618C47.0399 43.2013 46.0124 39.3758 43.9593 35.8816C41.9062 32.3893 39.1045 29.6156 35.5597 27.5606C32.0112 25.5075 28.1595 24.4801 23.9991 24.4801C19.8386 24.4801 15.9195 25.5075 12.3991 27.5606C8.8787 29.6138 6.07884 32.3874 3.99953 35.8816C1.92022 39.3758 0.879635 43.2013 0.879635 47.3618V48.0019H0Z" fill="#FFFFFF"></path>
</svg>